<svg width="33" height="34" viewBox="0 0 33 34" fill="none" xmlns="http://www.w3.org/2000/svg">
<path d="M1.50474 5.23927L17.0643 0.695207L28.1043 7.64846L12.6439 13.2613L1.50474 5.23927Z" fill="url(#paint0_linear)"/>
<path d="M12.6439 13.2613L1.50474 5.23927L1.26002 23.9276L12.4054 31.4705L12.6439 13.2613Z" fill="url(#paint1_linear)"/>
<path d="M28.1043 7.64846L12.6439 13.2613L12.4054 31.4705L27.8718 25.4087L28.1043 7.64846Z" fill="url(#paint2_linear)"/>
<path d="M31.7594 9.29272L16.2989 14.9056L16.0605 33.1148L31.5268 27.0529L31.7594 9.29272Z" fill="url(#paint3_linear)"/>
<path d="M1.50474 5.23927L17.0643 0.695207L28.1043 7.64846M1.50474 5.23927L12.6439 13.2613M1.50474 5.23927L1.26002 23.9276L12.4054 31.4705M28.1043 7.64846L12.6439 13.2613M28.1043 7.64846L27.8718 25.4087L12.4054 31.4705M12.6439 13.2613L12.4054 31.4705M31.7594 9.29272L16.2989 14.9056L16.0605 33.1148L31.5268 27.0529L31.7594 9.29272Z" stroke="url(#paint4_linear)" stroke-opacity="0.5" stroke-width="0.6"/>
<defs>
<linearGradient id="paint0_linear" x1="-7.84787" y1="12.1993" x2="31.814" y2="3.55627" gradientUnits="userSpaceOnUse">
<stop stop-color="#28C38A"/>
<stop offset="0.0001" stop-color="#5AFCB8"/>
<stop offset="0.619792" stop-color="#28C38A" stop-opacity="0.791667"/>
<stop offset="0.973958" stop-color="#28C38A" stop-opacity="0.836689"/>
</linearGradient>
<linearGradient id="paint1_linear" x1="-7.84787" y1="12.1993" x2="31.814" y2="3.55627" gradientUnits="userSpaceOnUse">
<stop stop-color="#28C38A"/>
<stop offset="0.0001" stop-color="#5AFCB8"/>
<stop offset="0.619792" stop-color="#28C38A" stop-opacity="0.791667"/>
<stop offset="0.973958" stop-color="#28C38A" stop-opacity="0.836689"/>
</linearGradient>
<linearGradient id="paint2_linear" x1="-7.84787" y1="12.1993" x2="31.814" y2="3.55627" gradientUnits="userSpaceOnUse">
<stop stop-color="#28C38A"/>
<stop offset="0.0001" stop-color="#5AFCB8"/>
<stop offset="0.619792" stop-color="#28C38A" stop-opacity="0.791667"/>
<stop offset="0.973958" stop-color="#28C38A" stop-opacity="0.836689"/>
</linearGradient>
<linearGradient id="paint3_linear" x1="-7.84787" y1="12.1993" x2="31.814" y2="3.55627" gradientUnits="userSpaceOnUse">
<stop stop-color="#28C38A"/>
<stop offset="0.0001" stop-color="#5AFCB8"/>
<stop offset="0.619792" stop-color="#28C38A" stop-opacity="0.791667"/>
<stop offset="0.973958" stop-color="#28C38A" stop-opacity="0.836689"/>
</linearGradient>
<linearGradient id="paint4_linear" x1="0.184773" y1="0.380821" x2="29.6273" y2="30.479" gradientUnits="userSpaceOnUse">
<stop stop-color="#0A6022"/>
<stop offset="1" stop-color="#73072E" stop-opacity="0"/>
</linearGradient>
</defs>
</svg>
