<svg width="132" height="53" viewBox="0 0 132 53" fill="none" xmlns="http://www.w3.org/2000/svg">
<path d="M10.8116 13.9573L26.8798 9.96551L38.789 17.8141L22.878 22.9326L10.8116 13.9573Z" fill="url(#paint0_linear)"/>
<path d="M22.878 22.9326L10.8116 13.9573L11.4887 33.5581L23.5377 42.0307L22.878 22.9326Z" fill="url(#paint1_linear)"/>
<path d="M38.789 17.8141L22.878 22.9326L23.5377 42.0307L39.4324 36.4414L38.789 17.8141Z" fill="url(#paint2_linear)"/>
<path d="M42.699 19.7223L26.7879 24.8407L27.4476 43.9389L43.3424 38.3496L42.699 19.7223Z" fill="url(#paint3_linear)"/>
<path d="M10.8116 13.9573L26.8798 9.96551L38.789 17.8141M10.8116 13.9573L22.878 22.9326M10.8116 13.9573L11.4887 33.5581L23.5377 42.0307M38.789 17.8141L22.878 22.9326M38.789 17.8141L39.4324 36.4414L23.5377 42.0307M22.878 22.9326L23.5377 42.0307M42.699 19.7223L26.7879 24.8407L27.4476 43.9389L43.3424 38.3496L42.699 19.7223Z" stroke="url(#paint4_linear)" stroke-opacity="0.5" stroke-width="0.6"/>
<path d="M46.4414 15.2141H59.9297V20.6047H53.7305V22.1399H59.9062V26.7336H53.7305V28.5032H60.3398V33.929H46.4414V15.2141ZM69.7734 33.929H63.1289V14.2063H69.7734V33.929ZM76.2305 12.6125C77.3789 12.6125 78.2305 12.8547 78.7852 13.3391C79.3398 13.8157 79.6133 14.425 79.6055 15.1672C79.6055 15.9094 79.25 16.593 78.5391 17.218C77.8359 17.843 76.8945 18.1555 75.7148 18.1555C74.0586 18.1555 73.0273 17.6555 72.6211 16.6555C72.5039 16.3743 72.4453 16.0618 72.4453 15.718C72.4453 15.3743 72.5273 15.0149 72.6914 14.6399C72.8555 14.2649 73.1016 13.929 73.4297 13.6321C74.1562 12.9524 75.0898 12.6125 76.2305 12.6125ZM79.4062 33.929H72.6211V19.3625H79.4062V33.929ZM93.2695 17.3704C92.8867 17.261 92.5078 17.2063 92.1328 17.2063C91.4531 17.2063 90.9336 17.4016 90.5742 17.7922C90.2227 18.175 90.0234 18.6985 89.9766 19.3625H93.293V23.0774H89.9766V33.929H82.9688V23.0774H81.6328V19.3625H82.9688V16.8899C82.9688 15.593 83.4844 14.5657 84.5156 13.8079C85.5469 13.05 86.9219 12.6711 88.6406 12.6711C90.3594 12.6633 91.9023 13.0618 93.2695 13.8665V17.3704ZM106.547 33.9641C105.5 34.2454 104.066 34.386 102.246 34.386C100.426 34.386 98.1523 34.1711 95.4258 33.7415V14.2063H102.246V21.0852C103.254 20.1321 104.477 19.5266 105.914 19.2688C106.305 19.1985 106.648 19.1633 106.945 19.1633C108.984 19.1633 110.57 19.8469 111.703 21.2141C112.836 22.5813 113.402 24.2532 113.402 26.2297C113.402 27.2844 113.102 28.3821 112.5 29.5227C111.328 31.7415 109.344 33.2219 106.547 33.9641ZM105.621 24.0383C104.598 24.0383 103.461 24.55 102.211 25.5735V29.9915H103.371C104.152 29.9915 104.914 29.5188 105.656 28.5735C106.406 27.6204 106.781 26.6438 106.781 25.6438C106.781 24.9329 106.574 24.4446 106.16 24.179C106.012 24.0852 105.832 24.0383 105.621 24.0383ZM125.25 23.5344C125.25 22.8469 124.93 22.5032 124.289 22.5032C123.555 22.5735 123.078 22.9524 122.859 23.6399C122.75 23.968 122.672 24.3508 122.625 24.7883C122.586 25.218 122.523 25.679 122.438 26.1711L125.004 25.5969L125.227 23.804L125.25 23.5344ZM123.668 28.8665C123.668 28.8665 123.453 28.8665 123.023 28.8665C122.82 28.8665 122.625 28.8586 122.438 28.843C122.438 29.7727 122.934 30.2805 123.926 30.3665C124.199 30.3899 124.465 30.4016 124.723 30.4016C125.387 30.4016 126.219 30.2493 127.219 29.9446C128.227 29.6399 129.129 29.1438 129.926 28.4563L130.652 32.1008C128.91 33.6086 126.277 34.3625 122.754 34.3625C120.73 34.3625 118.992 33.7727 117.539 32.593C115.961 31.304 115.172 29.5188 115.172 27.2375C115.172 25.5188 115.617 23.9758 116.508 22.6086C117.336 21.3586 118.457 20.4094 119.871 19.761C121.285 19.1125 122.812 18.7883 124.453 18.7883C126.578 18.7883 128.184 19.2532 129.27 20.1829C130.363 21.1125 130.906 22.261 130.898 23.6282C130.898 24.9954 130.246 26.2102 128.941 27.2727C127.637 28.3352 125.879 28.8665 123.668 28.8665Z" fill="url(#paint5_linear)"/>
<defs>
<linearGradient id="paint0_linear" x1="1.36445" y1="20.7946" x2="41.5632" y2="10.2493" gradientUnits="userSpaceOnUse">
<stop stop-color="#28C38A"/>
<stop offset="0.0001" stop-color="#5AFCB8"/>
<stop offset="0.619792" stop-color="#28C38A" stop-opacity="0.791667"/>
<stop offset="0.973958" stop-color="#28C38A" stop-opacity="0.836689"/>
</linearGradient>
<linearGradient id="paint1_linear" x1="1.36445" y1="20.7946" x2="41.5632" y2="10.2493" gradientUnits="userSpaceOnUse">
<stop stop-color="#28C38A"/>
<stop offset="0.0001" stop-color="#5AFCB8"/>
<stop offset="0.619792" stop-color="#28C38A" stop-opacity="0.791667"/>
<stop offset="0.973958" stop-color="#28C38A" stop-opacity="0.836689"/>
</linearGradient>
<linearGradient id="paint2_linear" x1="1.36445" y1="20.7946" x2="41.5632" y2="10.2493" gradientUnits="userSpaceOnUse">
<stop stop-color="#28C38A"/>
<stop offset="0.0001" stop-color="#5AFCB8"/>
<stop offset="0.619792" stop-color="#28C38A" stop-opacity="0.791667"/>
<stop offset="0.973958" stop-color="#28C38A" stop-opacity="0.836689"/>
</linearGradient>
<linearGradient id="paint3_linear" x1="1.36445" y1="20.7946" x2="41.5632" y2="10.2493" gradientUnits="userSpaceOnUse">
<stop stop-color="#28C38A"/>
<stop offset="0.0001" stop-color="#5AFCB8"/>
<stop offset="0.619792" stop-color="#28C38A" stop-opacity="0.791667"/>
<stop offset="0.973958" stop-color="#28C38A" stop-opacity="0.836689"/>
</linearGradient>
<linearGradient id="paint4_linear" x1="9.18658" y1="8.79255" x2="41.5242" y2="41.8503" gradientUnits="userSpaceOnUse">
<stop stop-color="#0A6022"/>
<stop offset="1" stop-color="#73072E" stop-opacity="0"/>
</linearGradient>
<linearGradient id="paint5_linear" x1="88.5" y1="4.92896" x2="88.5" y2="45.929" gradientUnits="userSpaceOnUse">
<stop stop-color="#28C38A" stop-opacity="0.791667"/>
<stop offset="0.0001" stop-color="#28C38A"/>
<stop offset="1" stop-color="#28C38A" stop-opacity="0"/>
</linearGradient>
</defs>
</svg>
